<?xml version="1.0" standalone="no"?>
<!DOCTYPE svg PUBLIC "-//W3C//DTD SVG 20010904//EN"
 "http://www.w3.org/TR/2001/REC-SVG-20010904/DTD/svg10.dtd">
<svg version="1.0" xmlns="http://www.w3.org/2000/svg"
 width="256.000000pt" height="256.000000pt" viewBox="0 0 256.000000 256.000000"
 preserveAspectRatio="xMidYMid meet">
<metadata>
Created by potrace 1.11, written by Peter Selinger 2001-2013
</metadata>
<g transform="translate(0.000000,256.000000) scale(0.100000,-0.100000)"
fill="#000000" stroke="none">
<path d="M1065 2544 c-350 -63 -657 -263 -849 -552 -340 -511 -274 -1185 159
-1617 336 -337 825 -458 1285 -319 341 103 634 359 784 684 224 488 120 1067
-259 1445 -190 190 -428 313 -699 360 -110 19 -313 18 -421 -1z m606 -801
c159 -79 256 -259 229 -426 -8 -51 -8 -52 30 -90 53 -53 73 -100 78 -178 7
-108 -43 -195 -140 -243 l-52 -26 -530 0 c-326 0 -545 4 -567 10 -48 14 -127
84 -150 135 -21 46 -24 129 -7 187 16 54 79 122 133 144 41 18 45 22 45 55 0
100 59 195 144 235 60 28 148 32 201 10 35 -15 35 -15 51 16 21 41 98 123 140
149 74 45 134 60 235 56 84 -2 104 -6 160 -34z"/>
</g>
</svg>
